<svg xmlns="http://www.w3.org/2000/svg" viewBox="0 0 900 240" font-family="Helvetica, Arial, sans-serif">
  <!-- curve -->
  <path d="M60 60 Q460 220 860 60" fill="none" stroke="#5b84c4" stroke-width="3"/>
  <text x="80" y="45" font-size="12" fill="#5b84c4">high</text>
  <text x="800" y="45" font-size="12" fill="#5b84c4">high</text>
  <text x="460" y="120" text-anchor="middle" font-size="12" fill="#999">low</text>

  <!-- token strip -->
  <g>
    <rect x="60" y="170" width="780" height="28" fill="none" stroke="none"/>
  </g>
  <g font-size="0">
    <rect x="60"  y="170" width="36" height="28" fill="#c9dcf5" stroke="#5b84c4"/>
    <rect x="100" y="170" width="36" height="28" fill="#c9dcf5" stroke="#5b84c4"/>
    <rect x="140" y="170" width="36" height="28" fill="#c9dcf5" stroke="#5b84c4"/>
    <rect x="180" y="170" width="36" height="28" fill="#d8e6f8" stroke="#a9c2e6"/>
    <rect x="220" y="170" width="36" height="28" fill="#d8e6f8" stroke="#a9c2e6"/>
    <rect x="260" y="170" width="36" height="28" fill="#d8e6f8" stroke="#a9c2e6"/>
    <rect x="300" y="170" width="36" height="28" fill="#e9eff8" stroke="#c7d6ec"/>
    <rect x="340" y="170" width="36" height="28" fill="#e9eff8" stroke="#c7d6ec"/>
    <rect x="380" y="170" width="36" height="28" fill="#e9eff8" stroke="#c7d6ec"/>
    <rect x="420" y="170" width="36" height="28" fill="#f0743a" stroke="#c95a24"/>
    <rect x="460" y="170" width="36" height="28" fill="#e9eff8" stroke="#c7d6ec"/>
    <rect x="500" y="170" width="36" height="28" fill="#e9eff8" stroke="#c7d6ec"/>
    <rect x="540" y="170" width="36" height="28" fill="#d8e6f8" stroke="#a9c2e6"/>
    <rect x="580" y="170" width="36" height="28" fill="#d8e6f8" stroke="#a9c2e6"/>
    <rect x="620" y="170" width="36" height="28" fill="#d8e6f8" stroke="#a9c2e6"/>
    <rect x="660" y="170" width="36" height="28" fill="#c9dcf5" stroke="#5b84c4"/>
    <rect x="700" y="170" width="36" height="28" fill="#c9dcf5" stroke="#5b84c4"/>
    <rect x="740" y="170" width="36" height="28" fill="#c9dcf5" stroke="#5b84c4"/>
    <rect x="780" y="170" width="36" height="28" fill="#c9dcf5" stroke="#5b84c4"/>
    <rect x="820" y="170" width="36" height="28" fill="#c9dcf5" stroke="#5b84c4"/>
  </g>

  <path d="M438 183 L438 155" stroke="#c95a24" stroke-width="1.5"/>
  <text x="438" y="150" text-anchor="middle" font-size="12" fill="#c95a24">your objective</text>

  <text x="70" y="225" font-size="12" fill="#999">start</text>
  <text x="850" y="225" text-anchor="end" font-size="12" fill="#999">most recent</text>
</svg>
